<?xml version="1.0" standalone="no"?>
<!DOCTYPE svg PUBLIC "-//W3C//DTD SVG 20010904//EN"
 "http://www.w3.org/TR/2001/REC-SVG-20010904/DTD/svg10.dtd">
<svg version="1.0" xmlns="http://www.w3.org/2000/svg"
 width="512.000000pt" height="512.000000pt" viewBox="0 0 512.000000 512.000000"
 preserveAspectRatio="xMidYMid meet">
<metadata>
Created by potrace 1.16, written by Peter Selinger 2001-2019
</metadata>
<g transform="translate(0.000000,512.000000) scale(0.100000,-0.100000)"
fill="#000000" stroke="none">
<path d="M2483 5018 c-44 -32 -73 -87 -73 -140 0 -79 51 -118 156 -118 101 0
154 44 154 128 0 45 -39 111 -80 136 -42 24 -118 21 -157 -6z"/>
<path d="M2466 4618 c-3 -62 -8 -215 -11 -340 l-6 -228 93 0 c51 0 104 3 117
7 l23 6 -6 206 c-3 113 -9 263 -12 334 l-6 127 -93 0 -93 0 -6 -112z"/>
<path d="M2220 4030 c-196 -18 -296 -50 -314 -103 -9 -24 -6 -32 24 -62 44
-46 72 -50 155 -23 54 17 94 22 175 22 93 1 116 -3 207 -34 l102 -34 98 33
c88 30 109 33 208 33 83 0 126 -5 175 -21 85 -27 93 -27 135 10 27 24 35 39
35 66 0 32 -4 36 -53 59 -92 41 -221 55 -552 59 -165 2 -343 0 -395 -5z"/>
<path d="M770 4022 c0 -5 19 -26 43 -48 23 -21 111 -103 195 -181 l152 -143
153 0 152 -1 315 -464 c347 -512 595 -877 699 -1030 38 -55 75 -101 82 -102 8
-2 86 103 189 254 375 551 416 611 484 710 39 56 152 222 251 367 l180 265
147 1 147 0 196 182 c107 100 195 185 195 190 0 4 -212 7 -471 6 l-471 -3
-289 -430 c-159 -236 -348 -519 -421 -627 -72 -109 -134 -198 -137 -198 -3 0
-195 284 -425 630 l-419 630 -474 0 c-260 0 -473 -4 -473 -8z"/>
<path d="M2373 3663 c4 -87 10 -247 13 -357 l7 -198 74 -109 c40 -59 78 -111
83 -114 7 -4 10 147 10 429 l0 434 -32 20 c-30 18 -128 52 -151 52 -6 0 -8
-58 -4 -157z"/>
<path d="M2671 3800 c-29 -11 -64 -26 -77 -35 l-24 -15 0 -430 c0 -237 4 -430
8 -430 4 0 40 48 80 108 l72 107 10 225 c14 320 13 490 -2 490 -7 -1 -37 -9
-67 -20z"/>
<path d="M1510 2598 l0 -796 152 -174 c330 -376 572 -637 582 -627 13 12 -117
288 -214 454 -173 297 -192 370 -188 741 l3 240 360 -538 c198 -296 362 -538
365 -538 3 1 45 63 95 138 49 75 209 318 355 538 l266 401 -2 -246 c-2 -368
-24 -450 -194 -736 -80 -133 -142 -254 -185 -360 -16 -38 -33 -76 -38 -83 -6
-7 -7 -16 -2 -20 10 -10 386 394 638 687 l107 124 0 793 c0 523 -3 794 -10
794 -5 0 -10 -3 -10 -7 0 -5 -82 -126 -183 -270 -100 -145 -332 -479 -516
-743 -183 -264 -335 -479 -336 -478 -4 6 -638 925 -859 1248 -82 118 -157 224
-167 235 -19 19 -19 5 -19 -777z"/>
<path d="M2364 1308 c15 -592 43 -805 149 -1123 21 -66 38 -100 47 -100 10 0
27 38 53 115 65 200 106 412 127 660 12 149 26 720 17 720 -8 0 -56 -75 -128
-199 l-54 -95 -11 -160 -11 -161 -1 162 -2 162 -56 92 c-87 142 -124 199 -131
199 -3 0 -3 -123 1 -272z"/>
</g>
</svg>
